<svg id="Capa_1" enable-background="new 0 0 512 512" height="512" viewBox="0 0 512 512" width="512" xmlns="http://www.w3.org/2000/svg"><g><path d="m437.993 53.258-74.988 7.057c-10.584.996-18.357 10.384-17.361 20.968l7.057 74.988c.996 10.584 10.384 18.357 20.968 17.361l74.988-7.057c10.584-.996 18.357-10.384 17.361-20.968l-7.057-74.988c-.996-10.585-10.384-18.358-20.968-17.361z" fill="#e7ecf1"/><path d="m322.95 510.723c-99.413-32.594-193.913-75.906-283.501-129.937-10.372-6.255-14.954-18.937-10.855-30.335 42.033-116.905 93.61-229.436 154.729-337.593 5.959-10.545 18.556-15.353 30.066-11.579 99.413 32.594 193.913 75.906 283.501 129.937 10.372 6.255 14.953 18.937 10.855 30.335-42.033 116.905-93.61 229.436-154.729 337.593-5.959 10.545-18.557 15.353-30.066 11.579z" fill="#9d6b6b"/><path d="m52.59 371.415c-2.036 5.656-2.019 11.606-.3 17.009-4.288-2.521-8.577-5.065-12.839-7.642-10.379-6.254-14.956-18.933-10.854-30.332 42.025-116.904 93.604-229.441 154.729-337.591 5.957-10.55 18.55-15.359 30.063-11.579 4.735 1.546 9.462 3.135 14.171 4.737-5.216 2.225-9.739 6.106-12.694 11.34-64.101 113.432-118.193 231.451-162.276 354.058z" fill="#785252"/><g><g><path d="m176.138 48.665-23.807-10.912c-8.666-3.972-12.471-14.217-8.499-22.883 3.972-8.666 14.217-12.471 22.883-8.499l23.807 10.912c8.666 3.972 12.471 14.217 8.499 22.883-3.972 8.665-14.217 12.47-22.883 8.499z" fill="#e7ecf1"/><path d="m167.838 44.863-15.506-7.107c-8.664-3.971-12.472-14.222-8.501-22.886 1.987-4.336 5.542-7.452 9.682-8.99 4.141-1.538 8.875-1.494 13.203.489l15.506 7.107c-4.328-1.984-9.055-2.024-13.195-.486-4.141 1.538-7.695 4.654-9.682 8.99-3.97 8.665-.171 18.912 8.493 22.883z" fill="#c6d0da"/></g><g><path d="m36.644 353.017-23.807-10.912c-8.666-3.972-12.471-14.217-8.499-22.883 3.972-8.666 14.217-12.471 22.883-8.499l23.807 10.912c8.666 3.972 12.471 14.217 8.499 22.883-3.972 8.665-14.217 12.471-22.883 8.499z" fill="#e7ecf1"/><path d="m28.344 349.215-15.506-7.107c-8.664-3.971-12.472-14.222-8.501-22.886 1.987-4.336 5.542-7.452 9.682-8.99 4.141-1.538 8.875-1.494 13.203.489l15.506 7.107c-4.328-1.984-9.055-2.024-13.195-.486s-7.695 4.654-9.682 8.99c-3.971 8.665-.171 18.912 8.493 22.883z" fill="#c6d0da"/></g><g><path d="m64.543 292.146-23.807-10.912c-8.666-3.972-12.471-14.217-8.499-22.883 3.972-8.666 14.217-12.471 22.883-8.499l23.807 10.912c8.666 3.972 12.471 14.217 8.499 22.883-3.973 8.666-14.218 12.471-22.883 8.499z" fill="#e7ecf1"/><path d="m56.243 288.345-15.506-7.107c-8.664-3.971-12.472-14.222-8.501-22.886 1.987-4.336 5.542-7.452 9.682-8.99 4.141-1.538 8.875-1.494 13.203.489l15.506 7.107c-4.328-1.984-9.055-2.024-13.195-.486-4.141 1.538-7.695 4.654-9.682 8.99-3.971 8.665-.172 18.912 8.493 22.883z" fill="#c6d0da"/></g><g><path d="m92.441 231.276-23.807-10.912c-8.666-3.972-12.471-14.217-8.499-22.883 3.972-8.666 14.217-12.471 22.883-8.499l23.807 10.912c8.666 3.972 12.471 14.217 8.499 22.883-3.972 8.665-14.217 12.471-22.883 8.499z" fill="#e7ecf1"/><path d="m84.141 227.474-15.506-7.107c-8.664-3.971-12.472-14.222-8.501-22.886 1.987-4.336 5.542-7.452 9.682-8.99 4.141-1.538 8.875-1.494 13.203.489l15.506 7.107c-4.328-1.984-9.055-2.024-13.195-.486-4.141 1.538-7.695 4.654-9.682 8.99-3.97 8.665-.171 18.912 8.493 22.883z" fill="#c6d0da"/></g><g><path d="m120.34 170.405-23.807-10.912c-8.666-3.972-12.471-14.217-8.499-22.883 3.972-8.666 14.217-12.471 22.883-8.499l23.807 10.912c8.666 3.972 12.471 14.217 8.499 22.883-3.972 8.666-14.217 12.471-22.883 8.499z" fill="#e7ecf1"/><path d="m112.04 166.604-15.506-7.107c-8.664-3.971-12.472-14.222-8.501-22.886 1.987-4.336 5.542-7.452 9.682-8.99 4.141-1.538 8.875-1.494 13.203.489l15.506 7.107c-4.328-1.984-9.055-2.024-13.195-.486-4.141 1.538-7.695 4.654-9.682 8.99-3.97 8.665-.171 18.912 8.493 22.883z" fill="#c6d0da"/></g><g><path d="m148.239 109.535-23.807-10.912c-8.666-3.972-12.471-14.217-8.499-22.883 3.972-8.666 14.217-12.471 22.883-8.499l23.807 10.912c8.666 3.972 12.471 14.217 8.499 22.883-3.972 8.666-14.217 12.471-22.883 8.499z" fill="#e7ecf1"/><path d="m139.939 105.733-15.506-7.107c-8.664-3.971-12.472-14.222-8.501-22.886 1.987-4.336 5.542-7.452 9.682-8.99 4.141-1.538 8.875-1.494 13.203.489l15.506 7.107c-4.328-1.984-9.055-2.024-13.195-.486-4.141 1.538-7.695 4.654-9.682 8.99-3.97 8.665-.171 18.912 8.493 22.883z" fill="#c6d0da"/></g></g><g fill="#e7ecf1"><path d="m386.847 172.974c-3.892-1.742-8.465.007-10.205 3.903l-16.705 37.397-9.563-54.215c-.588-3.33-3.272-5.891-6.626-6.321-3.354-.429-6.598 1.371-8.007 4.444l-27.051 59.018c-1.778 3.879-.074 8.465 3.805 10.243 3.877 1.779 8.465.075 10.243-3.804l16.723-36.486 9.115 51.671c.703 3.955 3.579 6.819 7.327 7.297.359.046.716.068 1.07.068 3.418-.001 6.529-2.099 8.142-5.62l25.635-57.389c1.741-3.896-.007-8.466-3.903-10.206z"/><path d="m266.12 117.657c-3.69-1.949-8.239-1.165-11.063 1.906-.063.068-.125.138-.185.209l-28.526 33.359 6.278-43.642c.014-.095.026-.189.036-.284.441-4.152-1.977-8.087-5.881-9.568-3.903-1.482-8.323-.143-10.799 3.328l-36.783 52.816c-2.439 3.502-1.577 8.317 1.925 10.756s8.317 1.576 10.756-1.925l21.685-31.138-5.591 38.867c-.014.095-.025.19-.035.285-.42 3.954 1.732 7.711 5.355 9.349 3.623 1.64 7.866.773 10.557-2.153.063-.069.125-.138.186-.209l25.431-29.74-9.102 37.048c-1.018 4.144 1.516 8.328 5.659 9.347.62.152 1.239.225 1.85.225 3.474-.001 6.631-2.36 7.497-5.885l15.413-62.736c.943-4.066-.973-8.266-4.663-10.215z"/><path d="m312.115 183.322c1.778-3.879.074-8.465-3.805-10.243l-15.842-7.261 6.988-15.247 17.662 8.095c3.881 1.78 8.467.074 10.243-3.804 1.778-3.879.074-8.465-3.805-10.243l-24.686-11.315c-1.862-.854-3.987-.932-5.909-.219-1.921.714-3.48 2.161-4.334 4.024l-13.426 29.293s0 .001-.001.001v.001l-13.426 29.293c-1.778 3.879-.074 8.465 3.805 10.243l24.686 11.315c1.043.478 2.137.705 3.214.705 2.928-.001 5.729-1.674 7.029-4.509 1.778-3.879.074-8.465-3.805-10.243l-17.662-8.096 6.988-15.247 15.842 7.261c1.043.478 2.137.705 3.214.705 2.928 0 5.73-1.674 7.03-4.509z"/><path d="m448.219 201.103c-3.88-1.779-8.466-.074-10.243 3.804l-18.629 40.644c-1.346 2.938-3.91 6.348-11.85 6.64-2.459.093-4.832-.414-7.28-1.54-2.681-1.233-4.71-2.959-6.204-5.279-3.541-5.494-3.25-8.839-1.722-12.171l18.648-40.687c1.778-3.879.074-8.465-3.805-10.243-3.88-1.78-8.466-.074-10.243 3.804l-18.648 40.687c-4.086 8.913-3.175 17.739 2.782 26.979 3.092 4.799 7.376 8.482 12.735 10.947 4.281 1.969 8.712 2.964 13.193 2.964.37 0 .741-.007 1.113-.02 15.267-.562 22.201-8.817 25.33-15.644l18.629-40.644c1.777-3.878.074-8.464-3.806-10.241z"/></g><path d="m293.291 431.734-19.477-52.439c-3.442-9.265-12.296-14.974-21.652-14.886l-14.641-39.416 3.472-1.29c7.994-2.969 14.354-8.874 17.906-16.626 3.553-7.753 3.875-16.425.905-24.418l-7.517-20.238c-.001-.002-.002-.004-.002-.007 0-.001-16.387-44.12-16.387-44.12-1.486-4.001-5.934-6.04-9.933-4.553-4 1.486-6.039 5.933-4.553 9.933l16.384 44.111c.001.003.002.006.003.01 1.532 4.125 1.367 8.599-.467 12.599-.793 1.729-1.87 3.267-3.155 4.594l-21.561-58.047c-1.486-4.001-5.934-6.04-9.933-4.553-4.001 1.486-6.039 5.933-4.553 9.933l22.124 59.563-5.759 2.139-22.123-59.563c-1.486-4.001-5.934-6.04-9.933-4.553-4 1.486-6.039 5.933-4.553 9.933l21.561 58.047c-1.84-.167-3.659-.628-5.389-1.421-4.001-1.834-7.047-5.115-8.579-9.24-.001-.002-.002-.004-.003-.006l-16.385-44.114c-1.486-4.001-5.934-6.04-9.933-4.553-4 1.486-6.039 5.933-4.553 9.933l23.907 64.364c2.969 7.994 8.874 14.354 16.626 17.906 4.241 1.944 8.757 2.921 13.286 2.921 3.751 0 7.512-.67 11.132-2.015l3.477-1.292 14.645 39.428c-2.543 2.142-4.619 4.818-6.046 7.93-2.542 5.547-2.772 11.752-.648 17.471l19.477 52.439c3.416 9.195 12.159 14.891 21.438 14.89 2.637-.001 5.318-.46 7.93-1.431 5.72-2.125 10.271-6.35 12.813-11.896 2.544-5.543 2.773-11.748.649-17.467zm-79.113-114.555c-4.125 1.532-8.6 1.366-12.6-.467-1.925-.882-3.622-2.107-5.042-3.592 1.45.203 2.909.316 4.37.316 3.751-.001 7.512-.67 11.133-2.015l.591-.22c.001 0 .003-.001.004-.001s.002-.001.003-.001l20.836-7.739c5.028-1.868 9.409-4.898 12.852-8.819-.108 2.048-.594 4.078-1.474 5.998-1.833 4.001-5.115 7.047-9.239 8.579zm64.419 125.588c-.823 1.795-2.295 3.161-4.146 3.849-3.823 1.421-8.081-.535-9.502-4.355l-19.476-52.439c-1.419-3.82.535-8.082 4.355-9.501h.001c.845-.314 1.712-.463 2.565-.463 3.002 0 5.83 1.843 6.936 4.817l19.477 52.439c.686 1.851.612 3.858-.21 5.653z" fill="#e7ecf1"/><path d="m262.648 91.106-10.414-22.267c-1.211-2.589-4.117-3.921-6.869-3.148l-23.666 6.646c-4.79 1.345-8.961-3.533-6.888-8.055l24.539-53.54c2.219-4.842 7.944-6.968 12.786-4.749l40.901 18.746c4.842 2.219 6.968 7.944 4.749 12.786l-24.539 53.54c-2.073 4.523-8.491 4.548-10.599.041z" fill="#f4dd45"/></g></svg>